<svg xmlns="http://www.w3.org/2000/svg" width="58.8" height="58.451" viewBox="0 0 58.8 58.451"><path d="M258.822,20.079h0l.09-.626.18-.539.266-.446.27-.449.446-.36.54-.27.536-.176h1.162l.536.176.54.27.356.36.356.449.27.446.18.539.09.626h0l-.09.629-.18.539-.27.536-.356.36-.356.359-.54.269-.536.179-.626.09h0l-.536-.09-.536-.179-.54-.269-.446-.359-.27-.36-.266-.536-.18-.539ZM242.981,51.638h0l.986.807.982.717.986.717,1.072.717,1.166.628,1.072.538,1.162.538,1.252.448,1.166.359,1.252.359,1.252.359,1.252.269,1.256.179,1.252.09,1.342.09h2.595l1.342-.09,1.252-.09,1.252-.179,1.256-.269,1.252-.359,1.252-.359,1.162-.359,1.256-.448,1.162-.538,1.072-.538,1.166-.628,1.072-.717.986-.717.982-.717.986-.807L276.9,47.783h0l-1.342,1.166-1.432.986-1.522.9-1.522.807-1.609.627-1.612.538-1.788.359-1.792.269V32.9h5.1V29.046h-5.1V26h0l.9-.359.806-.538.716-.628.626-.717.446-.717.36-.9.266-.985v-.989h0v-.715l-.09-.629-.176-.715-.18-.539-.36-.626-.266-.539-.45-.536-.356-.449-.536-.449-.536-.36-.54-.266-.536-.27-.626-.27-.626-.18-.716-.09H261.06l-.716.09-.626.18-.626.27-.536.27-.54.266-.536.36-.536.449-.36.449-.446.536-.27.539-.356.626-.18.539-.18.715-.086.629v.715h0v.989l.266.985.36.9.446.717.626.717.716.628.806.538.9.359v3.048h-5.1V32.9h5.1v20.53h0l-1.792-.269L255.6,52.8l-1.612-.538-1.612-.627-1.609-.807-1.432-.9-1.432-.986-1.342-1.166ZM232.33,29.046h0l.09-1.434.09-1.524.18-1.434.27-1.434.356-1.345.36-1.434.446-1.345.536-1.345.626-1.255.626-1.255.716-1.165.806-1.255.806-1.079.9-1.165.892-.985.986-1.075.982-.9,1.076-.9,1.072-.9,1.166-.809,1.252-.805,1.162-.629,1.252-.715,1.342-.539,1.342-.536,1.346-.449,1.429-.36,1.432-.36L257.3.36l1.432-.18,1.522-.09L261.687,0h0l1.522.09,1.522.09,1.429.18,1.432.266,1.432.36,1.432.36,1.342.449,1.342.536,1.256.539,1.342.715,1.162.629,1.252.805,1.162.809,1.076.9,1.072.9.986.9.982,1.075.9.985.9,1.165.806,1.079.806,1.255.712,1.165.63,1.255.626,1.255.536,1.345.446,1.345.36,1.434.356,1.345.27,1.434.18,1.434.086,1.524.09,1.434h0l-.09,1.434-.086,1.255-.18,1.345-.18,1.345-.27,1.255-.356,1.255-.356,1.255-.45,1.255-.446,1.166-.536,1.165-.63,1.166-.626,1.076-.626,1.076-.716,1.076-.8,1.076-.806.986-3.76-3.855h0l1.162-1.614,1.166-1.793.892-1.793.806-1.972.54-1.972.446-1.972.266-2.062.09-2.151h0V27.881l-.09-1.255-.176-1.166-.18-1.165-.27-1.166-.356-1.166-.36-1.075-.446-1.075-.446-1.079-.54-1.075-.626-.985-.626-.985-.626-.9-.716-.985L279.406,13l-.806-.9-.892-.805-.806-.719-.9-.715-.982-.719-.986-.626-.982-.539-.986-.536L270.993,6.9l-1.072-.36L268.758,6.1l-1.076-.27-1.162-.27-1.162-.27-1.166-.09-1.252-.09-1.252-.09h0l-1.162.09-1.256.09-1.162.09-1.162.27-1.162.27-1.076.27-1.162.446-1.076.36-1.072.539-.986.536-.982.539-.986.626-.982.719-.9.715-.806.719-.9.805-.8.9-.716.805-.716.985-.63.9-.626.985-.626.985-.536,1.075-.446,1.079-.45,1.075-.356,1.075-.36,1.166-.266,1.166-.18,1.165-.18,1.166-.09,1.255v1.166h0l.09,2.151.27,2.062.446,1.972.54,1.972.8,1.972.9,1.793,1.162,1.793,1.166,1.614-3.76,3.855h0l-.806-.986-.806-1.076-.716-1.076-.626-1.076-.626-1.076-.626-1.166-.536-1.165-.446-1.166-.45-1.255-.356-1.255-.36-1.255-.266-1.255-.18-1.345-.18-1.345-.09-1.255Z" transform="translate(-232.33)" fill="#003369"/></svg>